<svg height="512" viewBox="0 0 152 152" width="512" xmlns="http://www.w3.org/2000/svg"><g id="Layer_2" data-name="Layer 2"><g id="Color"><g id="_33.Reddit" data-name="33.Reddit"><circle id="Background" cx="76" cy="76" fill="#ff4500" r="76"/><path id="Icon" d="m116 76.54a8.78 8.78 0 0 0 -14.84-6 42.7 42.7 0 0 0 -23.16-7.41l3.9-18.74 12.88 2.71a6 6 0 1 0 .79-3.68l-14.72-2.94a1.86 1.86 0 0 0 -2.22 1.42l-4.43 20.87a43.08 43.08 0 0 0 -23.43 7.39 8.77 8.77 0 0 0 -12 12.78 8.28 8.28 0 0 0 2.36 1.58 19.53 19.53 0 0 0 0 2.65c0 13.45 15.67 24.39 35 24.39s35-10.93 35-24.39a19.53 19.53 0 0 0 0-2.65 8.76 8.76 0 0 0 4.87-7.98zm-60.06 6a6 6 0 1 1 6 6 6 6 0 0 1 -6-5.99zm34.89 16.53a23.09 23.09 0 0 1 -14.83 4.63 23.08 23.08 0 0 1 -14.84-4.63 1.62 1.62 0 0 1 2.28-2.29 19.64 19.64 0 0 0 12.5 3.78 19.75 19.75 0 0 0 12.54-3.66 1.71 1.71 0 0 1 2.38 0 1.41 1.41 0 0 1 -.03 2.17zm-7.09-16.31a6 6 0 0 1 12 0c.16 3.32-1.74 6.24-5.74 6.24a6 6 0 0 1 -6.26-6.24z" fill="#fff"/></g></g></g></svg>